<?xml version="1.0" encoding="UTF-8"?>
<svg width="372px" height="294px" viewBox="0 0 372 294" version="1.1" xmlns="http://www.w3.org/2000/svg" xmlns:xlink="http://www.w3.org/1999/xlink">
    <!-- Generator: Sketch 55.2 (78181) - https://sketchapp.com -->
    <title>about-glitch-shape</title>
    <desc>Created with Sketch.</desc>
    <defs>
        <polygon id="path-1" points="99 26.5668934 168.427126 77.0086528 141.908323 158.625134 56.0916766 158.625134 29.5728743 77.0086528"></polygon>
        <polygon id="path-3" points="99.3554329 25.9086043 168.782559 76.3503637 142.263756 157.966845 56.4471094 157.966845 29.9283072 76.3503637"></polygon>
        <path d="M236.471722,98.1108926 C253.423985,98.1108926 259.856054,92.9282156 273.285963,78.9686114 C286.715872,65.0090072 299.967525,54.6436533 327.512988,54.6436533 C355.05845,54.6436533 385.98831,86.5035042 385.98831,142.535879 C385.98831,198.568255 346.881332,220.802341 332.712874,227.024668 C318.544416,233.246995 302.918425,227.024668 278.588677,227.024668 C254.258928,227.024668 233.796956,242.322928 211.618578,257.995287 C189.440201,273.667647 166.490989,303.880849 134.54723,303.880849 C102.603471,303.880849 68.0218521,300.877175 39.8499613,257.995287 C11.6780705,215.1134 18.5933605,151.456523 48.545071,98.1108926 C78.4967816,44.7652622 111.897998,31.7702627 134.54723,30.2826218 C157.196461,28.7949808 187.654372,30.3186951 201.246804,54.6436533 C214.839236,78.9686114 219.519459,98.1108926 236.471722,98.1108926 Z" id="path-5"></path>
    </defs>
    <g id="Pattern-Examples" stroke="none" stroke-width="1" fill="none" fill-rule="evenodd">
        <g id="About" transform="translate(-60.000000, -99.000000)">
            <g id="about-glitch-shape" transform="translate(40.957932, 74.245135)">
                <g id="pattern-exterior" transform="translate(215.663528, 0.000000)">
                    <g id="Group-2" transform="translate(0.280977, 0.570002)">
                        <mask id="mask-2" fill="white">
                            <use xlink:href="#path-1"></use>
                        </mask>
                        <g id="Polygon" fill-rule="nonzero" transform="translate(99.000000, 99.566893) rotate(62.000000) translate(-99.000000, -99.566893) "></g>
                        <g id="lines" mask="url(#mask-2)" fill-rule="nonzero" stroke="#FFAABF" stroke-linecap="round" stroke-width="2.5">
                            <g transform="translate(150.164364, 62.500000) rotate(63.000000) translate(-150.164364, -62.500000) translate(76.664364, -95.000000)">
                                <path d="M42.122807,131.338983 L42.122807,144.721582" id="Line-Copy-118"></path>
                                <path d="M51.5789474,131.338983 L51.5789474,144.721582" id="Line-Copy-116"></path>
                                <path d="M56.7368421,115.322034 L56.7368421,122.013333" id="Line-Copy-115"></path>
                                <path d="M61.0350877,131.338983 L61.0350877,144.721582" id="Line-Copy-114"></path>
                                <path d="M70.4912281,131.338983 L70.4912281,144.721582" id="Line-Copy-112"></path>
                                <path d="M79.9473684,131.338983 L79.9473684,144.721582" id="Line-Copy-110"></path>
                                <path d="M89.4035088,131.338983 L89.4035088,144.721582" id="Line-Copy-108"></path>
                                <path d="M98.8596491,131.338983 L98.8596491,144.721582" id="Line-Copy-106"></path>
                                <path d="M23.2105263,169.779661 L23.2105263,183.16226" id="Line-Copy-154"></path>
                                <path d="M28.3684211,153.762712 L28.3684211,160.454011" id="Line-Copy-153"></path>
                                <path d="M32.6666667,169.779661 L32.6666667,183.16226" id="Line-Copy-152"></path>
                                <path d="M37.8245614,153.762712 L37.8245614,160.454011" id="Line-Copy-151"></path>
                                <path d="M42.122807,169.779661 L42.122807,183.16226" id="Line-Copy-150"></path>
                                <path d="M47.2807018,153.762712 L47.2807018,160.454011" id="Line-Copy-149"></path>
                                <path d="M51.5789474,169.779661 L51.5789474,183.16226" id="Line-Copy-148"></path>
                                <path d="M56.7368421,153.762712 L56.7368421,160.454011" id="Line-Copy-147"></path>
                                <path d="M61.0350877,169.779661 L61.0350877,183.16226" id="Line-Copy-146"></path>
                                <path d="M66.1929825,153.762712 L66.1929825,160.454011" id="Line-Copy-145"></path>
                                <path d="M70.4912281,169.779661 L70.4912281,183.16226" id="Line-Copy-144"></path>
                                <path d="M75.6491228,153.762712 L75.6491228,160.454011" id="Line-Copy-143"></path>
                                <path d="M79.9473684,169.779661 L79.9473684,183.16226" id="Line-Copy-142"></path>
                                <path d="M85.1052632,153.762712 L85.1052632,160.454011" id="Line-Copy-141"></path>
                                <path d="M89.4035088,169.779661 L89.4035088,183.16226" id="Line-Copy-140"></path>
                                <path d="M94.5614035,153.762712 L94.5614035,160.454011" id="Line-Copy-139"></path>
                                <path d="M98.8596491,169.779661 L98.8596491,183.16226" id="Line-Copy-138"></path>
                                <path d="M104.017544,153.762712 L104.017544,160.454011" id="Line-Copy-137"></path>
                                <path d="M108.315789,169.779661 L108.315789,183.16226" id="Line-Copy-136"></path>
                                <path d="M113.473684,153.762712 L113.473684,160.454011" id="Line-Copy-135"></path>
                                <path d="M117.77193,169.779661 L117.77193,183.16226" id="Line-Copy-134"></path>
                                <path d="M122.929825,153.762712 L122.929825,160.454011" id="Line-Copy-133"></path>
                                <path d="M127.22807,169.779661 L127.22807,183.16226" id="Line-Copy-132"></path>
                                <path d="M132.385965,153.762712 L132.385965,160.454011" id="Line-Copy-131"></path>
                                <path d="M136.684211,169.779661 L136.684211,183.16226" id="Line-Copy-130"></path>
                                <path d="M146.140351,169.779661 L146.140351,183.16226" id="Line-Copy-128"></path>
                                <path d="M4.29824561,208.220339 L4.29824561,221.602938" id="Line-Copy-190"></path>
                                <path d="M9.45614035,192.20339 L9.45614035,198.894689" id="Line-Copy-189"></path>
                                <path d="M13.754386,208.220339 L13.754386,221.602938" id="Line-Copy-188"></path>
                                <path d="M18.9122807,192.20339 L18.9122807,198.894689" id="Line-Copy-187"></path>
                                <path d="M23.2105263,208.220339 L23.2105263,221.602938" id="Line-Copy-186"></path>
                                <path d="M28.3684211,192.20339 L28.3684211,198.894689" id="Line-Copy-185"></path>
                                <path d="M32.6666667,208.220339 L32.6666667,221.602938" id="Line-Copy-184"></path>
                                <path d="M37.8245614,192.20339 L37.8245614,198.894689" id="Line-Copy-183"></path>
                                <path d="M42.122807,208.220339 L42.122807,221.602938" id="Line-Copy-182"></path>
                                <path d="M47.2807018,192.20339 L47.2807018,198.894689" id="Line-Copy-181"></path>
                                <path d="M51.5789474,208.220339 L51.5789474,221.602938" id="Line-Copy-180"></path>
                                <path d="M56.7368421,192.20339 L56.7368421,198.894689" id="Line-Copy-179"></path>
                                <path d="M61.0350877,208.220339 L61.0350877,221.602938" id="Line-Copy-178"></path>
                                <path d="M66.1929825,192.20339 L66.1929825,198.894689" id="Line-Copy-177"></path>
                                <path d="M70.4912281,208.220339 L70.4912281,221.602938" id="Line-Copy-176"></path>
                                <path d="M75.6491228,192.20339 L75.6491228,198.894689" id="Line-Copy-175"></path>
                                <path d="M79.9473684,208.220339 L79.9473684,221.602938" id="Line-Copy-174"></path>
                                <path d="M85.1052632,192.20339 L85.1052632,198.894689" id="Line-Copy-173"></path>
                                <path d="M89.4035088,208.220339 L89.4035088,221.602938" id="Line-Copy-172"></path>
                                <path d="M94.5614035,192.20339 L94.5614035,198.894689" id="Line-Copy-171"></path>
                                <path d="M98.8596491,208.220339 L98.8596491,221.602938" id="Line-Copy-170"></path>
                                <path d="M104.017544,192.20339 L104.017544,198.894689" id="Line-Copy-169"></path>
                                <path d="M108.315789,208.220339 L108.315789,221.602938" id="Line-Copy-168"></path>
                                <path d="M113.473684,192.20339 L113.473684,198.894689" id="Line-Copy-167"></path>
                                <path d="M117.77193,208.220339 L117.77193,221.602938" id="Line-Copy-166"></path>
                                <path d="M122.929825,192.20339 L122.929825,198.894689" id="Line-Copy-165"></path>
                                <path d="M127.22807,208.220339 L127.22807,221.602938" id="Line-Copy-164"></path>
                                <path d="M132.385965,192.20339 L132.385965,198.894689" id="Line-Copy-163"></path>
                                <path d="M136.684211,208.220339 L136.684211,221.602938" id="Line-Copy-162"></path>
                                <path d="M141.842105,192.20339 L141.842105,198.894689" id="Line-Copy-161"></path>
                                <path d="M146.140351,208.220339 L146.140351,221.602938" id="Line-Copy-160"></path>
                                <path d="M0.429824561,230.644068 L0.429824561,237.335367" id="Line-Copy-223"></path>
                                <path d="M4.29824561,246.661017 L4.29824561,260.043615" id="Line-Copy-222"></path>
                                <path d="M9.45614035,230.644068 L9.45614035,237.335367" id="Line-Copy-221"></path>
                                <path d="M13.754386,246.661017 L13.754386,260.043615" id="Line-Copy-220"></path>
                                <path d="M18.9122807,230.644068 L18.9122807,237.335367" id="Line-Copy-219"></path>
                                <path d="M23.2105263,246.661017 L23.2105263,260.043615" id="Line-Copy-218"></path>
                                <path d="M28.3684211,230.644068 L28.3684211,237.335367" id="Line-Copy-217"></path>
                                <path d="M32.6666667,246.661017 L32.6666667,260.043615" id="Line-Copy-216"></path>
                                <path d="M37.8245614,230.644068 L37.8245614,237.335367" id="Line-Copy-215"></path>
                                <path d="M42.122807,246.661017 L42.122807,260.043615" id="Line-Copy-214"></path>
                                <path d="M47.2807018,230.644068 L47.2807018,237.335367" id="Line-Copy-213"></path>
                                <path d="M51.5789474,246.661017 L51.5789474,260.043615" id="Line-Copy-212"></path>
                                <path d="M56.7368421,230.644068 L56.7368421,237.335367" id="Line-Copy-211"></path>
                                <path d="M61.0350877,246.661017 L61.0350877,260.043615" id="Line-Copy-210"></path>
                                <path d="M66.1929825,230.644068 L66.1929825,237.335367" id="Line-Copy-209"></path>
                                <path d="M70.4912281,246.661017 L70.4912281,260.043615" id="Line-Copy-208"></path>
                                <path d="M75.6491228,230.644068 L75.6491228,237.335367" id="Line-Copy-207"></path>
                                <path d="M79.9473684,246.661017 L79.9473684,260.043615" id="Line-Copy-206"></path>
                                <path d="M85.1052632,230.644068 L85.1052632,237.335367" id="Line-Copy-205"></path>
                                <path d="M89.4035088,246.661017 L89.4035088,260.043615" id="Line-Copy-204"></path>
                                <path d="M94.5614035,230.644068 L94.5614035,237.335367" id="Line-Copy-203"></path>
                                <path d="M98.8596491,246.661017 L98.8596491,260.043615" id="Line-Copy-202"></path>
                                <path d="M104.017544,230.644068 L104.017544,237.335367" id="Line-Copy-201"></path>
                                <path d="M108.315789,246.661017 L108.315789,260.043615" id="Line-Copy-200"></path>
                                <path d="M113.473684,230.644068 L113.473684,237.335367" id="Line-Copy-199"></path>
                                <path d="M117.77193,246.661017 L117.77193,260.043615" id="Line-Copy-198"></path>
                                <path d="M122.929825,230.644068 L122.929825,237.335367" id="Line-Copy-197"></path>
                                <path d="M127.22807,246.661017 L127.22807,260.043615" id="Line-Copy-196"></path>
                                <path d="M132.385965,230.644068 L132.385965,237.335367" id="Line-Copy-195"></path>
                                <path d="M136.684211,246.661017 L136.684211,260.043615" id="Line-Copy-194"></path>
                                <path d="M141.842105,230.644068 L141.842105,237.335367" id="Line-Copy-193"></path>
                                <path d="M146.140351,246.661017 L146.140351,260.043615" id="Line-Copy-192"></path>
                                <path d="M0.429824561,269.084746 L0.429824561,275.776045" id="Line-Copy-255"></path>
                                <path d="M4.29824561,285.101695 L4.29824561,298.484293" id="Line-Copy-254"></path>
                                <path d="M9.45614035,269.084746 L9.45614035,275.776045" id="Line-Copy-253"></path>
                                <path d="M13.754386,285.101695 L13.754386,298.484293" id="Line-Copy-252"></path>
                                <path d="M18.9122807,269.084746 L18.9122807,275.776045" id="Line-Copy-251"></path>
                                <path d="M23.2105263,285.101695 L23.2105263,298.484293" id="Line-Copy-250"></path>
                                <path d="M28.3684211,269.084746 L28.3684211,275.776045" id="Line-Copy-249"></path>
                                <path d="M32.6666667,285.101695 L32.6666667,298.484293" id="Line-Copy-248"></path>
                                <path d="M37.8245614,269.084746 L37.8245614,275.776045" id="Line-Copy-247"></path>
                                <path d="M42.122807,285.101695 L42.122807,298.484293" id="Line-Copy-246"></path>
                                <path d="M47.2807018,269.084746 L47.2807018,275.776045" id="Line-Copy-245"></path>
                                <path d="M51.5789474,285.101695 L51.5789474,298.484293" id="Line-Copy-244"></path>
                                <path d="M56.7368421,269.084746 L56.7368421,275.776045" id="Line-Copy-243"></path>
                                <path d="M61.0350877,285.101695 L61.0350877,298.484293" id="Line-Copy-242"></path>
                                <path d="M66.1929825,269.084746 L66.1929825,275.776045" id="Line-Copy-241"></path>
                                <path d="M70.4912281,285.101695 L70.4912281,298.484293" id="Line-Copy-240"></path>
                                <path d="M75.6491228,269.084746 L75.6491228,275.776045" id="Line-Copy-239"></path>
                                <path d="M79.9473684,285.101695 L79.9473684,298.484293" id="Line-Copy-238"></path>
                                <path d="M85.1052632,269.084746 L85.1052632,275.776045" id="Line-Copy-237"></path>
                                <path d="M89.4035088,285.101695 L89.4035088,298.484293" id="Line-Copy-236"></path>
                                <path d="M94.5614035,269.084746 L94.5614035,275.776045" id="Line-Copy-235"></path>
                                <path d="M98.8596491,285.101695 L98.8596491,298.484293" id="Line-Copy-234"></path>
                                <path d="M104.017544,269.084746 L104.017544,275.776045" id="Line-Copy-233"></path>
                                <path d="M108.315789,285.101695 L108.315789,298.484293" id="Line-Copy-232"></path>
                                <path d="M113.473684,269.084746 L113.473684,275.776045" id="Line-Copy-231"></path>
                                <path d="M117.77193,285.101695 L117.77193,298.484293" id="Line-Copy-230"></path>
                                <path d="M122.929825,269.084746 L122.929825,275.776045" id="Line-Copy-229"></path>
                                <path d="M127.22807,285.101695 L127.22807,298.484293" id="Line-Copy-228"></path>
                                <path d="M132.385965,269.084746 L132.385965,275.776045" id="Line-Copy-227"></path>
                                <path d="M136.684211,285.101695 L136.684211,298.484293" id="Line-Copy-226"></path>
                                <path d="M141.842105,269.084746 L141.842105,275.776045" id="Line-Copy-225"></path>
                                <path d="M146.140351,285.101695 L146.140351,298.484293" id="Line-Copy-224"></path>
                                <path d="M0.429824561,307.525424 L0.429824561,314.216723" id="Line-Copy-287"></path>
                                <path d="M9.45614035,307.525424 L9.45614035,314.216723" id="Line-Copy-285"></path>
                                <path d="M18.9122807,307.525424 L18.9122807,314.216723" id="Line-Copy-283"></path>
                                <path d="M28.3684211,307.525424 L28.3684211,314.216723" id="Line-Copy-281"></path>
                                <path d="M37.8245614,307.525424 L37.8245614,314.216723" id="Line-Copy-279"></path>
                                <path d="M47.2807018,307.525424 L47.2807018,314.216723" id="Line-Copy-277"></path>
                                <path d="M56.7368421,307.525424 L56.7368421,314.216723" id="Line-Copy-275"></path>
                                <path d="M66.1929825,307.525424 L66.1929825,314.216723" id="Line-Copy-273"></path>
                                <path d="M75.6491228,307.525424 L75.6491228,314.216723" id="Line-Copy-271"></path>
                                <path d="M85.1052632,307.525424 L85.1052632,314.216723" id="Line-Copy-269"></path>
                                <path d="M94.5614035,307.525424 L94.5614035,314.216723" id="Line-Copy-267"></path>
                                <path d="M104.017544,307.525424 L104.017544,314.216723" id="Line-Copy-265"></path>
                                <path d="M113.473684,307.525424 L113.473684,314.216723" id="Line-Copy-263"></path>
                                <path d="M122.929825,307.525424 L122.929825,314.216723" id="Line-Copy-261"></path>
                                <path d="M132.385965,307.525424 L132.385965,314.216723" id="Line-Copy-259"></path>
                                <path d="M141.842105,307.525424 L141.842105,314.216723" id="Line-Copy-257"></path>
                            </g>
                        </g>
                    </g>
                </g>
                <path d="M235.110537,103.374112 C252.0628,103.374112 258.494869,98.1914353 271.924778,84.2318311 C285.354688,70.2722268 298.606341,59.9068729 326.151803,59.9068729 C353.697266,59.9068729 384.627125,91.7667238 384.627125,147.799099 C384.627125,203.831474 345.937518,248.373556 331.76906,254.595883 C317.600602,260.81821 301.974611,254.595883 277.644862,254.595883 C253.315114,254.595883 238.359178,262.577102 210.674764,285.566502 C182.990349,308.555903 181.730741,326.63628 142.659877,330.390939 C103.589012,334.145598 76.767336,329.340296 45.1191264,282.647019 C13.4709169,235.953742 17.232176,156.719743 47.1838865,103.374112 C77.135597,50.0284819 110.536814,37.0334823 133.186045,35.5458414 C155.835277,34.0582004 186.293187,35.5819147 199.885619,59.9068729 C213.478051,84.2318311 218.158275,103.374112 235.110537,103.374112 Z" id="butternut-background" fill="#FFAABF" transform="translate(203.813563, 183.272371) rotate(10.000000) translate(-203.813563, -183.272371) "></path>
                <g id="pattern-interior" transform="translate(215.589072, 1.228291)">
                    <mask id="mask-4" fill="white">
                        <use xlink:href="#path-3"></use>
                    </mask>
                    <g id="Polygon" fill-rule="nonzero" transform="translate(99.355433, 98.908604) rotate(62.000000) translate(-99.355433, -98.908604) "></g>
                    <g id="Group" mask="url(#mask-4)">
                        <g transform="translate(-215.000000, 4.000000)">
                            <mask id="mask-6" fill="white">
                                <use xlink:href="#path-5"></use>
                            </mask>
                            <use id="butternut-mask" stroke="none" fill="#FFAABF" fill-rule="evenodd" transform="translate(204.000000, 166.880849) rotate(10.000000) translate(-204.000000, -166.880849) " xlink:href="#path-5"></use>
                            <g id="lines" stroke="none" stroke-width="1" fill="none" fill-rule="evenodd" mask="url(#mask-6)" stroke-linecap="round">
                                <g transform="translate(304.275829, 90.730560) rotate(63.000000) translate(-304.275829, -90.730560) translate(232.275829, 16.730560)" fill-rule="nonzero" stroke="#FFFFFF" stroke-width="2.5">
                                    <path d="M86.4035088,16.779661 L86.4035088,30.1622595" id="Line-Copy-140"></path>
                                    <path d="M91.5614035,0.762711864 L91.5614035,7.45401113" id="Line-Copy-139"></path>
                                    <path d="M95.8596491,16.779661 L95.8596491,30.1622595" id="Line-Copy-138"></path>
                                    <path d="M101.017544,0.762711864 L101.017544,7.45401113" id="Line-Copy-137"></path>
                                    <path d="M105.315789,16.779661 L105.315789,30.1622595" id="Line-Copy-136"></path>
                                    <path d="M110.473684,0.762711864 L110.473684,7.45401113" id="Line-Copy-135"></path>
                                    <path d="M114.77193,16.779661 L114.77193,30.1622595" id="Line-Copy-134"></path>
                                    <path d="M119.929825,0.762711864 L119.929825,7.45401113" id="Line-Copy-133"></path>
                                    <path d="M124.22807,16.779661 L124.22807,30.1622595" id="Line-Copy-132"></path>
                                    <path d="M129.385965,0.762711864 L129.385965,7.45401113" id="Line-Copy-131"></path>
                                    <path d="M133.684211,16.779661 L133.684211,30.1622595" id="Line-Copy-130"></path>
                                    <path d="M143.140351,16.779661 L143.140351,30.1622595" id="Line-Copy-128"></path>
                                    <path d="M1.29824561,55.220339 L1.29824561,68.6029375" id="Line-Copy-190"></path>
                                    <path d="M6.45614035,39.2033898 L6.45614035,45.8946891" id="Line-Copy-189"></path>
                                    <path d="M10.754386,55.220339 L10.754386,68.6029375" id="Line-Copy-188"></path>
                                    <path d="M67.4912281,55.220339 L67.4912281,68.6029375" id="Line-Copy-176"></path>
                                    <path d="M72.6491228,39.2033898 L72.6491228,45.8946891" id="Line-Copy-175"></path>
                                    <path d="M76.9473684,55.220339 L76.9473684,68.6029375" id="Line-Copy-174"></path>
                                    <path d="M82.1052632,39.2033898 L82.1052632,45.8946891" id="Line-Copy-173"></path>
                                    <path d="M86.4035088,55.220339 L86.4035088,68.6029375" id="Line-Copy-172"></path>
                                    <path d="M91.5614035,39.2033898 L91.5614035,45.8946891" id="Line-Copy-171"></path>
                                    <path d="M95.8596491,55.220339 L95.8596491,68.6029375" id="Line-Copy-170"></path>
                                    <path d="M101.017544,39.2033898 L101.017544,45.8946891" id="Line-Copy-169"></path>
                                    <path d="M105.315789,55.220339 L105.315789,68.6029375" id="Line-Copy-168"></path>
                                    <path d="M110.473684,39.2033898 L110.473684,45.8946891" id="Line-Copy-167"></path>
                                    <path d="M114.77193,55.220339 L114.77193,68.6029375" id="Line-Copy-166"></path>
                                    <path d="M119.929825,39.2033898 L119.929825,45.8946891" id="Line-Copy-165"></path>
                                    <path d="M124.22807,55.220339 L124.22807,68.6029375" id="Line-Copy-164"></path>
                                    <path d="M129.385965,39.2033898 L129.385965,45.8946891" id="Line-Copy-163"></path>
                                    <path d="M133.684211,55.220339 L133.684211,68.6029375" id="Line-Copy-162"></path>
                                    <path d="M138.842105,39.2033898 L138.842105,45.8946891" id="Line-Copy-161"></path>
                                    <path d="M143.140351,55.220339 L143.140351,68.6029375" id="Line-Copy-160"></path>
                                    <path d="M67.4912281,93.6610169 L67.4912281,107.043615" id="Line-Copy-208"></path>
                                    <path d="M72.6491228,77.6440678 L72.6491228,84.3353671" id="Line-Copy-207"></path>
                                    <path d="M76.9473684,93.6610169 L76.9473684,107.043615" id="Line-Copy-206"></path>
                                    <path d="M82.1052632,77.6440678 L82.1052632,84.3353671" id="Line-Copy-205"></path>
                                    <path d="M86.4035088,93.6610169 L86.4035088,107.043615" id="Line-Copy-204"></path>
                                    <path d="M91.5614035,77.6440678 L91.5614035,84.3353671" id="Line-Copy-203"></path>
                                    <path d="M95.8596491,93.6610169 L95.8596491,107.043615" id="Line-Copy-202"></path>
                                    <path d="M101.017544,77.6440678 L101.017544,84.3353671" id="Line-Copy-201"></path>
                                    <path d="M105.315789,93.6610169 L105.315789,107.043615" id="Line-Copy-200"></path>
                                    <path d="M110.473684,77.6440678 L110.473684,84.3353671" id="Line-Copy-199"></path>
                                    <path d="M114.77193,93.6610169 L114.77193,107.043615" id="Line-Copy-198"></path>
                                    <path d="M119.929825,77.6440678 L119.929825,84.3353671" id="Line-Copy-197"></path>
                                    <path d="M124.22807,93.6610169 L124.22807,107.043615" id="Line-Copy-196"></path>
                                    <path d="M129.385965,77.6440678 L129.385965,84.3353671" id="Line-Copy-195"></path>
                                    <path d="M133.684211,93.6610169 L133.684211,107.043615" id="Line-Copy-194"></path>
                                    <path d="M138.842105,77.6440678 L138.842105,84.3353671" id="Line-Copy-193"></path>
                                    <path d="M63.1929825,116.084746 L63.1929825,122.776045" id="Line-Copy-241"></path>
                                    <path d="M67.4912281,132.101695 L67.4912281,145.484293" id="Line-Copy-240"></path>
                                    <path d="M72.6491228,116.084746 L72.6491228,122.776045" id="Line-Copy-239"></path>
                                    <path d="M76.9473684,132.101695 L76.9473684,145.484293" id="Line-Copy-238"></path>
                                    <path d="M82.1052632,116.084746 L82.1052632,122.776045" id="Line-Copy-237"></path>
                                    <path d="M86.4035088,132.101695 L86.4035088,145.484293" id="Line-Copy-236"></path>
                                    <path d="M91.5614035,116.084746 L91.5614035,122.776045" id="Line-Copy-235"></path>
                                    <path d="M95.8596491,132.101695 L95.8596491,145.484293" id="Line-Copy-234"></path>
                                    <path d="M101.017544,116.084746 L101.017544,122.776045" id="Line-Copy-233"></path>
                                    <path d="M105.315789,132.101695 L105.315789,145.484293" id="Line-Copy-232"></path>
                                    <path d="M110.473684,116.084746 L110.473684,122.776045" id="Line-Copy-231"></path>
                                    <path d="M114.77193,132.101695 L114.77193,145.484293" id="Line-Copy-230"></path>
                                    <path d="M119.929825,116.084746 L119.929825,122.776045" id="Line-Copy-229"></path>
                                    <path d="M124.22807,132.101695 L124.22807,145.484293" id="Line-Copy-228"></path>
                                </g>
                            </g>
                        </g>
                    </g>
                </g>
            </g>
        </g>
    </g>
</svg>