<?xml version="1.0" encoding="utf-8"?>
<!-- Generator: Adobe Illustrator 24.2.1, SVG Export Plug-In . SVG Version: 6.00 Build 0)  -->
<svg version="1.1" id="Layer_1" xmlns="http://www.w3.org/2000/svg" xmlns:xlink="http://www.w3.org/1999/xlink" x="0px" y="0px"
	 viewBox="0 0 121 29" style="enable-background:new 0 0 121 29;" xml:space="preserve">
<style type="text/css">
	.st0{fill:#1D1D1B;}
</style>
<g>
	<path class="st0" d="M48.27,11.5v9.69h-5.45V11.5h-4.08l3.4-4l3.4-4l3.4,4l3.4,4H48.27z M59.39,14.01L59.39,14.01V0.76H31.7v13.25
		l0,0c0,0.02,0,0.05,0,0.07C31.7,21.63,37.74,28,45.62,28c7.62,0,13.77-6.26,13.77-13.92C59.39,14.06,59.39,14.03,59.39,14.01"/>
	<path class="st0" d="M112.1,17.56l-4,3.4v-4.08h-9.69v-5.45h9.69V7.35l4,3.4l4,3.4L112.1,17.56z M107.08,0.31
		c-7.55,0-13.92,6.04-13.92,13.92c0,7.62,6.26,13.77,13.92,13.77S121,21.85,121,14.23C121,6.35,114.63,0.31,107.08,0.31"/>
	<path class="st0" d="M90.28,11.5h-1.61H74.69v5.4h8.6c-1.06,2.98-3.78,5.1-6.97,5.1c-4.11,0-7.46-3.52-7.46-7.84
		c0-4.33,3.35-7.84,7.46-7.84c2.22,0,4.2,1.03,5.57,2.65h7.62C87.4,3.9,82.29,0.32,76.32,0.32c-7.86,0-14.23,6.2-14.23,13.84
		S68.46,28,76.32,28s14.23-6.2,14.23-13.84C90.54,13.25,90.45,12.36,90.28,11.5"/>
	<path class="st0" d="M28.74,11.5h-1.61H13.16v5.4h8.6c-1.07,2.98-3.79,5.1-6.98,5.1c-4.11,0-7.46-3.52-7.46-7.84
		c0-4.33,3.35-7.84,7.46-7.84c2.22,0,4.2,1.03,5.57,2.65h7.62c-2.11-5.07-7.22-8.65-13.19-8.65c-7.86,0-14.23,6.2-14.23,13.84
		C0.55,21.8,6.92,28,14.78,28s14.23-6.2,14.23-13.84C29.01,13.25,28.92,12.36,28.74,11.5"/>
</g>
</svg>
